<svg xmlns="http://www.w3.org/2000/svg" version="1.1" xmlns:xlink="http://www.w3.org/1999/xlink" width="1500" height="134" viewBox="0 0 1500 134"><svg xml:space="preserve" width="1500" height="134" data-version="2" data-id="lg_ksVoC1MEBe5hvksk4X" viewBox="0 0 788 134" x="0" y="0"><rect width="100%" height="100%" fill="transparent"></rect><path fill="#2d57ff" d="m160.787 102.925-29.31-96.36h22.31l23.23 81.32-5.01-2.51h13.46l-5.28 2.51 21.52-81.32h21.65l-27.33 96.36Z" paint-order="stroke"></path><rect width="91.88" height="96.36" x="-45.94" y="-48.18" fill="none" rx="0" ry="0" transform="translate(177.92 55.24)"></rect><path fill="#2d57ff" d="M237.217 102.925v-72.33h21.12v72.33Zm-9.64-56.76v-15.57h30.76v15.57Zm17.82-22.7q-5.94 0-8.78-3.1-2.84-3.1-2.84-7.86 0-4.88 2.84-7.98 2.84-3.1 8.78-3.1 5.94 0 8.78 3.1 2.84 3.1 2.84 7.98 0 4.76-2.84 7.86-2.84 3.1-8.78 3.1" paint-order="stroke"></path><rect width="30.76" height="101.5" x="-15.38" y="-50.75" fill="none" rx="0" ry="0" transform="translate(243.46 52.67)"></rect><path fill="#2d57ff" d="M305.327 105.175q-15.45 0-24.16-6.34-8.71-6.33-9.24-17.82h18.75q.52 3.43 4.15 6.14 3.63 2.71 10.89 2.71 5.55 0 9.18-1.92 3.63-1.91 3.63-5.48 0-3.16-2.77-5.08-2.78-1.91-9.9-2.7l-5.68-.53q-13.07-1.32-19.6-7.26-6.54-5.94-6.54-15.18 0-7.66 3.83-12.81 3.83-5.14 10.63-7.78 6.8-2.64 15.51-2.64 13.99 0 22.57 6.13 8.58 6.14 8.98 17.76h-18.75q-.53-3.57-3.69-6.01-3.17-2.44-9.38-2.44-4.88 0-7.78 1.85-2.91 1.85-2.91 5.01 0 3.04 2.51 4.62 2.51 1.59 8.18 2.25l5.68.53q13.33 1.45 20.72 7.39 7.4 5.94 7.4 15.97 0 7.26-3.96 12.61-3.96 5.34-11.22 8.18-7.26 2.84-17.03 2.84" paint-order="stroke"></path><rect width="65.61" height="76.69" x="-32.8" y="-38.34" fill="none" rx="0" ry="0" transform="translate(305.23 67.33)"></rect><path fill="#2d57ff" d="M354.697 102.925v-72.33h21.12v72.33Zm-9.64-56.76v-15.57h30.76v15.57Zm17.82-22.7q-5.94 0-8.78-3.1-2.84-3.1-2.84-7.86 0-4.88 2.84-7.98 2.84-3.1 8.78-3.1 5.94 0 8.78 3.1 2.84 3.1 2.84 7.98 0 4.76-2.84 7.86-2.84 3.1-8.78 3.1" paint-order="stroke"></path><rect width="30.76" height="101.5" x="-15.38" y="-50.75" fill="none" rx="0" ry="0" transform="translate(360.94 52.67)"></rect><path fill="#2d57ff" d="M430.597 105.435q-9.51 0-16.9-2.97-7.39-2.97-12.47-8.12-5.09-5.14-7.73-11.81-2.64-6.67-2.64-14.06v-3.03q0-7.53 2.71-14.33 2.71-6.79 7.92-11.94 5.21-5.15 12.61-8.12 7.39-2.97 16.5-2.97 9.37 0 16.69 2.97 7.33 2.97 12.48 8.12 5.15 5.15 7.92 11.94 2.77 6.8 2.77 14.33v3.03q0 7.39-2.64 14.06-2.64 6.67-7.72 11.81-5.08 5.15-12.48 8.12-7.39 2.97-17.02 2.97m0-17.82q6.2 0 10.29-2.64 4.09-2.64 6.27-7.39 2.18-4.75 2.18-10.56 0-6.2-2.24-10.89-2.25-4.69-6.41-7.46-4.15-2.77-10.09-2.77-5.81 0-10.04 2.77-4.22 2.77-6.4 7.46-2.18 4.69-2.18 10.89 0 5.81 2.12 10.56 2.11 4.75 6.33 7.39 4.23 2.64 10.17 2.64" paint-order="stroke"></path><rect width="79.6" height="77.35" x="-39.8" y="-38.67" fill="none" rx="0" ry="0" transform="translate(431.16 67.26)"></rect><path fill="#2d57ff" d="M485.237 102.925v-72.33h16.77v31.02h-1.19q0-11.09 2.84-18.48 2.84-7.39 8.64-11.09 5.81-3.7 14.13-3.7h.92q12.67 0 19.34 8.25t6.67 25.02v41.31h-21.12v-42.5q0-5.81-3.44-9.5-3.43-3.7-9.24-3.7-5.94 0-9.57 3.76t-3.63 9.84v42.1Z" paint-order="stroke"></path><rect width="68.12" height="74.58" x="-34.06" y="-37.29" fill="none" rx="0" ry="0" transform="translate(519.8 66.14)"></rect><path fill="#2d57ff" d="M600.217 102.925V6.565h21.64v96.36Zm19-38.8v-17.96h37.23v17.96Zm0-39.6V6.565h38.81v17.96Z" paint-order="stroke"></path><rect width="57.81" height="96.36" x="-28.91" y="-48.18" fill="none" rx="0" ry="0" transform="translate(629.62 55.24)"></rect><path fill="#2d57ff" d="M674.657 102.925V6.565h21.26v96.36Zm-8.58-80.78V6.565h29.84v15.58Z" paint-order="stroke"></path><rect width="29.84" height="96.36" x="-14.92" y="-48.18" fill="none" rx="0" ry="0" transform="translate(681.5 55.24)"></rect><path fill="#2d57ff" d="M714.527 131.575v-17.95h15.05q3.43 0 5.8-.86 2.38-.86 3.83-2.84 1.45-1.98 2.38-5.41l17.82-73.92h20.06l-20.19 78.14q-2.12 8.45-5.88 13.47-3.76 5.01-10.03 7.19-6.27 2.18-15.91 2.18Zm22.7-30.23v-16.5h15.31v16.5Zm-8.71 0-22.18-70.75h21.26l20.98 70.75Z" paint-order="stroke"></path><rect width="73.13" height="100.98" x="-36.56" y="-50.49" fill="none" rx="0" ry="0" transform="translate(743.4 81.58)"></rect><path fill="#2d57ff" d="M75.67 59.911c-2.929-6.76-7.023-13.58-12.173-20.27l-.215-.279c-1.227-1.601-2.86-3.722-4.813-5.479a11.73 11.73 0 0 0 .388-2.917c.018-8.49-5.619-15.967-13.696-15.967-8.076 0-13.56 7.478-13.463 15.967a12.715 12.715 0 0 0 .383 2.917c-1.952 1.759-3.586 3.881-4.811 5.48l-.215.278c-5.15 6.69-9.244 13.51-12.174 20.27-8.985 20.744-9.734 35.694-2.228 44.432 2.415 2.813 5.428 4.237 8.955 4.239.243 0 .485-.009.728-.023 4.93-.273 9.541-3.22 12.54-5.64 6.717-5.424 9.163-12.588 10.4-19.832 1.239 7.243 3.685 14.408 10.401 19.831 3 2.422 7.61 5.368 12.54 5.641.243.014.486.023.729.023 3.477 0 6.574-1.467 8.955-4.237 7.504-8.74 6.755-23.69-2.23-44.434m-34.359 19.26c-1.109 8.56-3.109 15.279-9.263 20.249-2.033 1.642-6.032 4.431-9.963 4.65-2.36.13-4.365-.73-6.018-2.658-6.29-7.32-5.3-20.682 2.943-39.71 2.783-6.42 6.69-12.92 11.613-19.317l.217-.282c.83-1.083 1.98-2.579 3.268-3.91 1.719 2.31 4.286 4.023 7.466 4.777 1.59 10.69 1.508 22.536-.263 36.202m33.174 22.243c-1.653 1.926-3.639 2.79-6.018 2.656-3.93-.219-7.93-3.008-9.963-4.65-6.154-4.968-8.154-11.688-9.263-20.248-1.772-13.672-1.853-25.526-.258-36.221 3.151-.776 5.706-2.517 7.429-4.802 1.297 1.343 2.46 2.859 3.303 3.953l.217.282c4.924 6.396 8.83 12.896 11.613 19.316 8.24 19.03 9.229 32.39 2.94 39.714"></path></svg></svg>