<svg xmlns="http://www.w3.org/2000/svg" version="1.1" xmlns:xlink="http://www.w3.org/1999/xlink" width="1500" height="1500" viewBox="0 0 1500 1500"><rect width="1500" height="1500" x="0" y="0" id="background" stroke="transparent" fill="#ffffff"></rect><svg xml:space="preserve" width="1000" height="1000" data-version="2" data-id="lg_ksVoC1MEBe5hvksk4X" viewBox="0 0 568 97" x="250" y="250"><rect width="100%" height="100%" fill="transparent"></rect><path fill="#5a5a5a" d="m116.005 74.215-21.09-69.35h16.05l16.72 58.52-3.61-1.8h9.69l-3.8 1.8 15.49-58.52h15.58l-19.67 69.35Z" paint-order="stroke"></path><rect width="66.12" height="69.35" x="-33.06" y="-34.67" fill="none" rx="0" ry="0" transform="translate(128.47 40.04)"></rect><path fill="#5a5a5a" d="M171.005 74.215v-52.06h15.2v52.06Zm-6.93-40.85v-11.21h22.13v11.21Zm12.82-16.34q-4.27 0-6.31-2.23-2.05-2.23-2.05-5.65 0-3.52 2.05-5.75 2.04-2.23 6.31-2.23 4.28 0 6.32 2.23t2.04 5.75q0 3.42-2.04 5.65-2.04 2.23-6.32 2.23" paint-order="stroke"></path><rect width="22.13" height="73.05" x="-11.06" y="-36.52" fill="none" rx="0" ry="0" transform="translate(175.64 38.19)"></rect><path fill="#5a5a5a" d="M220.025 75.835q-11.11 0-17.38-4.56t-6.65-12.83h13.49q.38 2.47 2.99 4.42 2.61 1.95 7.84 1.95 3.99 0 6.6-1.38 2.61-1.38 2.61-3.94 0-2.28-1.99-3.66-2-1.38-7.13-1.95l-4.08-.38q-9.41-.95-14.11-5.22-4.7-4.28-4.7-10.93 0-5.51 2.75-9.21 2.76-3.71 7.65-5.61 4.89-1.9 11.16-1.9 10.07 0 16.25 4.42 6.17 4.42 6.46 12.78h-13.49q-.38-2.57-2.66-4.33-2.28-1.75-6.75-1.75-3.51 0-5.6 1.33t-2.09 3.61q0 2.18 1.8 3.32 1.81 1.14 5.89 1.62l4.09.38q9.59 1.04 14.91 5.32 5.32 4.27 5.32 11.49 0 5.23-2.85 9.07-2.85 3.85-8.07 5.89-5.23 2.05-12.26 2.05" paint-order="stroke"></path><rect width="47.21" height="55.2" x="-23.61" y="-27.6" fill="none" rx="0" ry="0" transform="translate(220.1 48.73)"></rect><path fill="#5a5a5a" d="M255.555 74.215v-52.06h15.2v52.06Zm-6.93-40.85v-11.21h22.13v11.21Zm12.82-16.34q-4.27 0-6.31-2.23-2.05-2.23-2.05-5.65 0-3.52 2.05-5.75 2.04-2.23 6.31-2.23 4.28 0 6.32 2.23t2.04 5.75q0 3.42-2.04 5.65-2.04 2.23-6.32 2.23" paint-order="stroke"></path><rect width="22.13" height="73.05" x="-11.06" y="-36.52" fill="none" rx="0" ry="0" transform="translate(260.19 38.19)"></rect><path fill="#5a5a5a" d="M310.185 76.025q-6.84 0-12.16-2.14t-8.98-5.84q-3.66-3.71-5.56-8.51-1.9-4.79-1.9-10.11v-2.19q0-5.41 1.95-10.31 1.95-4.89 5.7-8.59 3.75-3.71 9.07-5.85 5.32-2.13 11.88-2.13 6.74 0 12.02 2.13 5.27 2.14 8.97 5.85 3.71 3.7 5.7 8.59 2 4.9 2 10.31v2.19q0 5.32-1.9 10.11-1.9 4.8-5.56 8.51-3.66 3.7-8.98 5.84-5.32 2.14-12.25 2.14m0-12.83q4.46 0 7.41-1.9 2.94-1.9 4.51-5.32 1.57-3.42 1.57-7.6 0-4.46-1.62-7.84-1.61-3.37-4.6-5.36-3-2-7.27-2-4.18 0-7.22 2-3.04 1.99-4.61 5.36-1.57 3.38-1.57 7.84 0 4.18 1.52 7.6t4.56 5.32q3.04 1.9 7.32 1.9" paint-order="stroke"></path><rect width="57.29" height="55.67" x="-28.64" y="-27.84" fill="none" rx="0" ry="0" transform="translate(310.73 48.69)"></rect><path fill="#5a5a5a" d="M349.515 74.215v-52.06h12.06v22.33h-.85q0-7.98 2.04-13.3t6.22-7.98q4.18-2.66 10.17-2.66h.66q9.12 0 13.92 5.93 4.8 5.94 4.8 18.01v29.73h-15.2v-30.59q0-4.18-2.47-6.84t-6.65-2.66q-4.28 0-6.89 2.71-2.61 2.71-2.61 7.08v30.3Z" paint-order="stroke"></path><rect width="49.02" height="53.67" x="-24.51" y="-26.84" fill="none" rx="0" ry="0" transform="translate(374.52 47.88)"></rect><path fill="#5a5a5a" d="M432.255 74.215V4.865h15.58v69.35Zm13.68-27.93v-12.92h26.79v12.92Zm0-28.5V4.865h27.93v12.92Z" paint-order="stroke"></path><rect width="41.61" height="69.35" x="-20.8" y="-34.67" fill="none" rx="0" ry="0" transform="translate(453.56 40.04)"></rect><path fill="#5a5a5a" d="M485.835 74.215V4.865h15.3v69.35Zm-6.17-58.14V4.865h21.47v11.21Z" paint-order="stroke"></path><rect width="21.47" height="69.35" x="-10.73" y="-34.67" fill="none" rx="0" ry="0" transform="translate(490.9 40.04)"></rect><path fill="#5a5a5a" d="M514.525 94.835v-12.92h10.83q2.47 0 4.18-.62 1.71-.62 2.76-2.04 1.04-1.43 1.71-3.9l12.82-53.2h14.44l-14.53 56.24q-1.52 6.08-4.23 9.69-2.71 3.61-7.22 5.18-4.51 1.57-11.45 1.57Zm16.34-21.76v-11.87h11.02v11.87Zm-6.27 0-15.96-50.92h15.3l15.1 50.92Z" paint-order="stroke"></path><rect width="52.63" height="72.68" x="-26.32" y="-36.34" fill="none" rx="0" ry="0" transform="translate(535.45 59)"></rect><path fill="#5a5a5a" d="M54.758 43.242c-2.107-4.864-5.053-9.77-8.758-14.584l-.155-.2c-.883-1.153-2.058-2.679-3.462-3.943a8.44 8.44 0 0 0 .279-2.099c.012-6.109-4.043-11.488-9.854-11.488-5.811 0-9.757 5.38-9.687 11.488a9.148 9.148 0 0 0 .275 2.099c-1.404 1.265-2.58 2.792-3.461 3.942l-.155.2c-3.705 4.814-6.65 9.72-8.758 14.585C4.556 58.167 4.018 68.923 9.418 75.21c1.738 2.024 3.905 3.048 6.443 3.05.175 0 .35-.007.524-.016 3.547-.197 6.865-2.317 9.023-4.06 4.832-3.9 6.592-9.055 7.482-14.268.891 5.211 2.651 10.367 7.483 14.269 2.158 1.742 5.476 3.862 9.023 4.059.175.01.35.016.524.016 2.502 0 4.73-1.055 6.443-3.049 5.4-6.288 4.86-17.044-1.605-31.97m-24.72 13.857c-.799 6.16-2.237 10.993-6.665 14.569-1.463 1.181-4.34 3.188-7.169 3.345-1.698.094-3.14-.525-4.33-1.912-4.525-5.267-3.813-14.88 2.118-28.57 2.002-4.62 4.813-9.296 8.355-13.899l.157-.203c.597-.78 1.423-1.855 2.35-2.813 1.238 1.663 3.084 2.895 5.373 3.437 1.143 7.691 1.084 16.215-.19 26.046m23.867 16.004c-1.189 1.385-2.618 2.006-4.33 1.91-2.827-.157-5.705-2.164-7.168-3.345-4.428-3.575-5.866-8.41-6.664-14.569-1.275-9.836-1.333-18.365-.186-26.06 2.267-.558 4.106-1.81 5.345-3.455.933.967 1.77 2.057 2.377 2.844l.156.203c3.543 4.602 6.353 9.279 8.355 13.898 5.928 13.692 6.64 23.304 2.115 28.574"></path></svg></svg>